Coordinates
version=1
nRows=6
nColumns=36
inDegrees=yes

Units are S.I. units (second, meters, Newtons, ...)
If the header above contains a line with 'inDegrees', this indicates whether rotational values are in degrees (yes) or radians (no).

endheader
time	pelvis_tilt	pelvis_list	pelvis_rotation	pelvis_tx	pelvis_ty	pelvis_tz	hip_flexion_r	hip_adduction_r	hip_rotation_r	knee_angle_r	knee_angle_r_beta	ankle_angle_r	subtalar_angle_r	mtp_angle_r	hip_flexion_l	hip_adduction_l	hip_rotation_l	knee_angle_l	knee_angle_l_beta	ankle_angle_l	subtalar_angle_l	mtp_angle_l	lumbar_extension	lumbar_bending	lumbar_rotation	arm_flex_r	arm_add_r	arm_rot_r	elbow_flex_r	pro_sup_r	arm_flex_l	arm_add_l	arm_rot_l	elbow_flex_l	pro_sup_l
      0.00000000	      1.67426742	     -1.80641752	      1.70400083	     -1.06273549	      1.39212277	     -0.04481670	     -3.04223106	      2.92468757	      2.74228635	      7.62173745	      0.13302441	      7.27520090	    -10.24568722	     -5.61325566	     -3.35386638	     -3.12895041	      1.56530822	      6.30516730	      0.11004593	     12.78337269	     -0.88446389	     -5.61325566	     -9.71949430	      2.49188669	      0.49324144	      3.50778984	     -4.29544779	      1.64225244	     28.20510976	     85.49128527	      3.62732891	     -2.65481385	      4.87204981	     26.88901281	     79.09105584
      0.00416670	     -1.52949725	     -1.14337255	      1.68529009	     -1.06083225	      1.38814665	     -0.04607199	      0.77554359	      2.11268589	      2.90036286	      8.39155074	      0.14646019	      9.98853164	     -7.61191009	     -6.22004910	      0.73553918	     -1.64204939	      2.87895510	      7.05659428	      0.12316080	     11.79666565	     -0.58227123	     -6.22004910	     -5.15708973	      1.91316081	      0.18630791	      2.27714649	     -3.96190106	     -0.52008820	     28.32069351	     81.29099456	      2.87562428	     -2.10430746	      1.97963221	     26.23921269	     75.96088932
      0.00833330	     -2.42245473	     -0.35353062	      1.52817367	     -1.05999995	      1.38537595	     -0.04393946	      1.18159776	      1.18927093	      2.22378040	      7.25975137	      0.12670656	     10.54872320	     -6.23299503	     -6.46568339	      1.47015509	     -0.89791454	      1.99029505	      6.77355579	      0.11822085	     11.40662378	      0.28132214	     -6.46568339	     -3.79607668	      0.74710971	      0.22559703	      1.96828835	     -3.58708052	     -0.65045346	     28.62051008	     79.30125703	      2.58105420	     -2.73926097	      3.00020702	     26.41600143	     74.81674122
      0.01250000	     -2.05751954	      0.03302298	      1.37625577	     -1.05959685	      1.38786170	     -0.04329789	      0.53953563	      0.74941749	      1.81724052	      6.73674053	      0.11757830	     11.04606953	     -4.96381735	     -6.65383843	      0.53449354	     -0.51186345	      1.82459108	      6.04900941	      0.10557513	     10.97505446	      0.29074212	     -6.65383843	     -4.17483472	      0.16562275	      0.87663576	      1.78398191	     -3.64533634	      0.14168451	     28.98270775	     79.70305648	      2.96990368	     -3.68333282	      7.32289873	     26.30453868	     76.42307473
      0.01666670	     -1.85101256	      0.19965177	      1.27480260	     -1.06026834	      1.38836115	     -0.04402994	      0.06537410	      0.60316357	      1.87274591	      6.18101113	      0.10787900	     11.07957976	     -4.67960023	     -6.70842357	      0.04716271	     -0.28201042	      1.74631994	      5.62618057	      0.09819538	     10.76375308	      0.09525360	     -6.70842357	     -4.39748357	     -0.03551841	      1.12265920	      1.86944310	     -3.50443801	      0.41448548	     28.91496432	     79.26313568	      3.30330362	     -3.70876238	      8.00514390	     26.18730100	     76.19123272
      0.02083330	     -1.66964243	      0.27910930	      1.26267459	     -1.05988633	      1.38697245	     -0.04315481	     -0.28059265	      0.56943441	      1.76057063	      5.89602204	      0.10290500	     11.24080703	     -4.15946284	     -7.18695634	     -0.27557026	     -0.19334847	      1.78800453	      5.42114687	      0.09461686	     10.73861637	      0.00218598	     -7.18695634	     -4.64461853	     -0.17451813	      1.45563822	      1.83197383	     -3.51467778	      0.40152823	     29.19264706	     82.91079132	      3.91934431	     -3.91870828	      9.70380457	     25.96890257	     80.14551501
